<?xml version="1.0" encoding="UTF-8"?><svg id="Layer_2" xmlns="http://www.w3.org/2000/svg" viewBox="0 0 4855.3 705.44"><defs><style>.cls-1{fill:#fff;}</style></defs><g id="Layer_2-2"><g id="TalentLayerID"><path class="cls-1" d="M161.77,545.18V92.23H0V0H433.24V92.23h-161.4v452.95h-110.07Z"/><path class="cls-1" d="M581.62,270.73l-94.83-17.11c10.66-38.18,29.01-66.44,55.04-84.79,26.03-18.34,64.71-27.52,116.03-27.52,46.61,0,81.31,5.52,104.13,16.55,22.81,11.03,38.86,25.04,48.16,42.02s13.95,48.16,13.95,93.53l-1.12,121.98c0,34.71,1.67,60.31,5.02,76.79,3.35,16.49,9.6,34.16,18.78,52.99h-103.38c-2.73-6.94-6.08-17.23-10.04-30.87-1.74-6.19-2.98-10.29-3.72-12.27-17.85,17.36-36.94,30.37-57.27,39.05s-42.02,13.02-65.08,13.02c-40.66,0-72.7-11.03-96.13-33.1-23.43-22.06-35.14-49.96-35.14-83.67,0-22.31,5.33-42.21,15.99-59.69s25.6-30.87,44.81-40.16c19.21-9.3,46.92-17.41,83.12-24.36,48.84-9.17,82.68-17.72,101.52-25.66v-10.41c0-20.08-4.96-34.4-14.88-42.95s-28.63-12.83-56.15-12.83c-18.59,0-33.1,3.66-43.51,10.97-10.41,7.32-18.84,20.15-25.29,38.49h-.01Zm139.83,84.79c-13.39,4.46-34.58,9.8-63.59,15.99-29.01,6.2-47.97,12.27-56.9,18.22-13.64,9.67-20.45,21.94-20.45,36.82s5.45,27.28,16.36,37.93c10.91,10.66,24.79,15.99,41.65,15.99,18.84,0,36.82-6.19,53.92-18.59,12.64-9.42,20.95-20.95,24.92-34.58,2.73-8.92,4.09-25.9,4.09-50.95v-20.83h0Z"/><path class="cls-1" d="M927.1,545.18V0h104.5V545.18h-104.5Z"/><path class="cls-1" d="M1367.41,419.48l104.13,17.48c-13.39,38.18-34.53,67.25-63.41,87.21s-65.02,29.94-108.4,29.94c-68.68,0-119.5-22.43-152.47-67.31-26.03-35.94-39.05-81.31-39.05-136.11,0-65.45,17.11-116.71,51.32-153.77,34.21-37.06,77.47-55.6,129.79-55.6,58.76,0,105.12,19.4,139.08,58.2s50.2,98.24,48.72,178.32h-261.81c.74,30.99,9.17,55.1,25.29,72.33,16.11,17.23,36.19,25.85,60.24,25.85,16.36,0,30.12-4.46,41.28-13.39,11.16-8.93,19.58-23.3,25.29-43.14h0Zm5.95-105.62c-.74-30.24-8.55-53.24-23.43-68.98-14.88-15.74-32.98-23.61-54.29-23.61-22.81,0-41.65,8.31-56.53,24.92-14.88,16.61-22.19,39.18-21.94,67.68h156.19Z"/><path class="cls-1" d="M1921.52,545.18h-104.5v-201.56c0-42.64-2.23-70.22-6.69-82.74-4.46-12.52-11.71-22.25-21.75-29.19s-22.13-10.41-36.26-10.41c-18.1,0-34.34,4.96-48.72,14.88s-24.24,23.06-29.56,39.42c-5.33,16.36-8,46.61-8,90.74v178.88h-104.5V150.24h97.06v58.01c34.46-44.63,77.85-66.94,130.16-66.94,23.06,0,44.13,4.15,63.22,12.46,19.09,8.31,33.53,18.91,43.32,31.8,9.79,12.89,16.61,27.52,20.45,43.88s5.76,39.79,5.76,70.29v245.44h.01Z"/><path class="cls-1" d="M2208.61,150.24v83.3h-71.4v159.17c0,32.23,.68,51.01,2.05,56.34,1.36,5.33,4.46,9.73,9.3,13.2,4.83,3.47,10.72,5.21,17.66,5.21,9.67,0,23.67-3.35,42.02-10.04l8.93,81.07c-24.3,10.41-51.82,15.62-82.56,15.62-18.84,0-35.83-3.16-50.95-9.48-15.12-6.32-26.22-14.5-33.28-24.54-7.07-10.04-11.96-23.61-14.69-40.72-2.23-12.14-3.35-36.69-3.35-73.63V233.54h-47.97v-83.3h47.97V71.77l104.87-60.99V150.24h71.4Z"/><path class="cls-1" d="M2282.24,545.18V0h72.15V480.84h268.5v64.34h-340.65Z"/><path class="cls-1" d="M2957.95,496.46c-24.79,21.08-48.66,35.95-71.59,44.63-22.93,8.68-47.54,13.02-73.82,13.02-43.39,0-76.74-10.6-100.04-31.8-23.31-21.2-34.96-48.28-34.96-81.26,0-19.34,4.4-37,13.2-52.99s20.33-28.82,34.59-38.49c14.25-9.67,30.31-16.98,48.16-21.94,13.14-3.47,32.97-6.82,59.5-10.04,54.04-6.44,93.84-14.13,119.37-23.06,.24-9.17,.37-15,.37-17.48,0-27.27-6.32-46.49-18.97-57.64-17.11-15.12-42.52-22.68-76.24-22.68-31.49,0-54.73,5.52-69.73,16.55s-26.1,30.56-33.28,58.57l-65.45-8.93c5.95-28.01,15.74-50.63,29.38-67.87,13.63-17.23,33.34-30.49,59.13-39.79,25.78-9.3,55.65-13.95,89.62-13.95s61.11,3.97,82.19,11.9c21.07,7.94,36.57,17.91,46.49,29.94,9.91,12.03,16.86,27.21,20.83,45.56,2.23,11.41,3.35,31.98,3.35,61.73v89.25c0,62.23,1.42,101.59,4.28,118.07,2.85,16.49,8.49,32.3,16.92,47.42h-69.91c-6.94-13.88-11.41-30.12-13.39-48.72h0Zm-5.58-149.5c-24.3,9.92-60.74,18.35-109.33,25.29-27.52,3.97-46.99,8.43-58.39,13.39-11.41,4.96-20.21,12.21-26.4,21.76-6.2,9.55-9.3,20.15-9.3,31.8,0,17.85,6.75,32.73,20.27,44.63,13.51,11.9,33.28,17.85,59.32,17.85s48.72-5.64,68.8-16.92,34.83-26.71,44.25-46.3c7.19-15.12,10.78-37.43,10.78-66.94v-24.56Z"/><path class="cls-1" d="M3120.84,697.28l-7.44-62.85c14.63,3.96,27.39,5.95,38.3,5.95,14.88,0,26.78-2.48,35.7-7.44s16.24-11.9,21.94-20.83c4.21-6.69,11.03-23.31,20.45-49.83,1.24-3.72,3.22-9.17,5.95-16.36l-149.87-395.68h72.14l82.19,228.71c10.66,29.01,20.2,59.5,28.63,91.48,7.68-30.74,16.86-60.74,27.52-90l84.42-230.2h66.94l-150.24,401.63c-16.12,43.38-28.63,73.26-37.56,89.62-11.9,22.06-25.54,38.24-40.91,48.53-15.38,10.29-33.72,15.43-55.04,15.43-12.89,0-27.28-2.73-43.14-8.18l.02,.02Z"/><path class="cls-1" d="M3774.98,418l69.17,8.55c-10.91,40.41-31.12,71.77-60.62,94.09-29.51,22.31-67.19,33.47-113.05,33.47-57.77,0-103.57-17.79-137.41-53.36-33.84-35.57-50.76-85.47-50.76-149.68s17.11-118.01,51.32-154.7c34.21-36.69,78.59-55.04,133.13-55.04s95.95,17.98,129.42,53.92c33.47,35.95,50.2,86.53,50.2,151.73,0,3.97-.13,9.92-.37,17.85h-294.53c2.47,43.39,14.75,76.61,36.82,99.66,22.06,23.06,49.58,34.58,82.56,34.58,24.54,0,45.49-6.44,62.85-19.34,17.35-12.89,31.11-33.47,41.28-61.73h0Zm-219.78-108.22h220.53c-2.98-33.22-11.41-58.14-25.29-74.75-21.33-25.78-48.97-38.68-82.93-38.68-30.74,0-56.59,10.29-77.54,30.87s-32.54,48.1-34.77,82.56Z"/><path class="cls-1" d="M3927.45,545.18V150.24h60.25v59.87c15.37-28.01,29.56-46.49,42.58-55.41s27.33-13.39,42.95-13.39c22.56,0,45.49,7.19,68.8,21.57l-23.06,62.1c-16.36-9.67-32.73-14.5-49.09-14.5-14.63,0-27.77,4.4-39.42,13.2-11.66,8.8-19.96,21.01-24.92,36.63-7.44,23.8-11.16,49.83-11.16,78.1v206.77h-66.93Z"/><path class="cls-1" d="M4183.68,545.18V0h110.08V545.18h-110.08Z"/><path class="cls-1" d="M4398.25,0h201.19c45.37,0,79.96,3.47,103.76,10.41,31.98,9.42,59.37,26.16,82.19,50.2,22.81,24.05,40.16,53.49,52.06,88.32,11.9,34.83,17.85,77.79,17.85,128.86,0,44.88-5.58,83.55-16.73,116.03-13.64,39.67-33.1,71.77-58.39,96.32-19.09,18.59-44.88,33.1-77.35,43.51-24.3,7.69-56.78,11.53-97.43,11.53h-207.14V0h0Zm110.08,92.23V453.32h82.19c30.74,0,52.93-1.73,66.57-5.21,17.85-4.46,32.66-12.02,44.44-22.68,11.77-10.66,21.38-28.2,28.82-52.62,7.44-24.42,11.16-57.7,11.16-99.85s-3.72-74.5-11.16-97.06-17.85-40.16-31.24-52.81-30.37-21.2-50.95-25.66c-15.38-3.47-45.5-5.21-90.37-5.21h-49.46Z"/></g></g></svg>